<?xml version="1.0" encoding="UTF-8"?><svg xmlns="http://www.w3.org/2000/svg" xmlns:xlink="http://www.w3.org/1999/xlink" viewBox="0 0 247.1 247.1"><defs><style>.f{clip-path:url(#d);}.g{fill:url(#e);}.h{fill:none;}</style><clipPath id="d"><path class="h" d="M84.13,152.8c-.61,0-1.22,.14-1.78,.39-.56,.25-1.06,.62-1.47,1.07l-21.66,24.04c-.29,.32-.49,.72-.56,1.14-.07,.43-.02,.86,.15,1.26s.46,.74,.81,.97c.36,.24,.78,.37,1.21,.38h102.13c.61,0,1.22-.14,1.78-.39,.56-.25,1.06-.62,1.47-1.07l21.65-24.04c.29-.32,.48-.72,.56-1.14,.07-.43,.02-.86-.15-1.26-.17-.4-.45-.74-.81-.98-.36-.24-.78-.37-1.21-.38H84.13Zm-23.37-43.8c-.43,0-.85,.14-1.21,.38-.36,.24-.64,.58-.81,.97-.17,.4-.22,.84-.15,1.26,.07,.43,.27,.82,.56,1.14l21.84,23.87c.41,.45,.92,.82,1.47,1.07,.56,.25,1.16,.39,1.78,.39h102.11c.43,0,.85-.14,1.21-.38,.36-.24,.64-.58,.81-.98,.17-.4,.23-.84,.16-1.26-.07-.43-.27-.82-.56-1.14l-21.81-23.96c-.41-.45-.91-.82-1.47-1.07-.56-.25-1.16-.39-1.78-.39l-102.15,.08Zm23.37-43.96c-.61,0-1.22,.14-1.78,.39-.56,.25-1.06,.62-1.47,1.07l-21.73,24.04c-.29,.32-.49,.72-.56,1.14-.07,.43-.02,.86,.15,1.26,.17,.4,.46,.74,.82,.97,.36,.24,.78,.37,1.21,.38h102.19c.61,0,1.22-.14,1.78-.39,.56-.25,1.06-.62,1.47-1.07l21.65-23.96c.29-.32,.48-.72,.56-1.14,.07-.43,.02-.86-.15-1.26-.17-.4-.45-.74-.81-.98-.36-.24-.78-.37-1.21-.38l-102.11-.08Z"/></clipPath><linearGradient id="e" x1="1183.09" y1="2037.69" x2="1184.14" y2="2037.69" gradientTransform="translate(-195558.96 -336760.34) scale(165.33)" gradientUnits="userSpaceOnUse"><stop offset="0" stop-color="#9945ff"/><stop offset=".14" stop-color="#8a53f4"/><stop offset=".42" stop-color="#6377d6"/><stop offset=".79" stop-color="#24b0a7"/><stop offset=".99" stop-color="#00d18c"/><stop offset="1" stop-color="#00d18c"/></linearGradient></defs><g id="a"/><g id="b"><g id="c"><g class="f"><rect class="g" x="36.19" y="36.19" width="174.73" height="174.73" transform="translate(-51.18 123.55) rotate(-45)"/></g></g></g></svg>